<svg version="1.1" xmlns="http://www.w3.org/2000/svg" xmlns:xlink="http://www.w3.org/1999/xlink" x="0px" y="0px"
	 viewBox="0 0 100 100" style="enable-background:new 0 0 100 100;" xml:space="preserve">
<g id="Vrstva_173">
	<g>
		<g>
			<g>
				<path d="M50,97.923c-24.383,0-44.221-19.837-44.221-44.221c0-17.283,10.164-33.084,25.895-40.256
					c0.753-0.345,1.643-0.012,1.987,0.743c0.344,0.753,0.011,1.643-0.743,1.987c-14.664,6.686-24.14,21.416-24.14,37.527
					c0,22.729,18.492,41.221,41.221,41.221s41.221-18.492,41.221-41.221c0-16.314-9.644-31.12-24.569-37.719
					c-0.758-0.335-1.101-1.221-0.766-1.979c0.335-0.758,1.219-1.1,1.979-0.766c16.011,7.08,26.356,22.962,26.356,40.463
					C94.221,78.085,74.383,97.923,50,97.923z"/>
			</g>
			<g>
				<path d="M56.971,12.14c-0.829,0-1.5-0.671-1.5-1.5c0-3.067-2.495-5.563-5.563-5.563c-3.067,0-5.562,2.495-5.562,5.563
					c0,0.829-0.671,1.5-1.5,1.5c-0.829,0-1.5-0.671-1.5-1.5c0-4.721,3.841-8.562,8.562-8.562s8.563,3.841,8.563,8.562
					C58.471,11.468,57.799,12.14,56.971,12.14z"/>
			</g>
			<g>
				<path d="M19.789,25.011c-0.384,0-0.768-0.146-1.061-0.439l-5.686-5.687c-0.586-0.585-0.586-1.536,0-2.121
					c0.586-0.586,1.535-0.586,2.121,0l5.686,5.686c0.586,0.586,0.586,1.536,0,2.121C20.557,24.865,20.173,25.011,19.789,25.011z"/>
			</g>
			<g>
				<path d="M79.965,24.756c-0.384,0-0.768-0.146-1.061-0.439c-0.586-0.586-0.586-1.536,0-2.121l5.155-5.155
					c0.586-0.586,1.535-0.586,2.121,0c0.586,0.585,0.586,1.536,0,2.121l-5.155,5.155C80.732,24.609,80.349,24.756,79.965,24.756z"/>
			</g>
		</g>
		<g>
			<path d="M50,63.468c-4.671,0-8.471-3.8-8.471-8.471s3.8-8.471,8.471-8.471s8.471,3.8,8.471,8.471S54.671,63.468,50,63.468z
				 M50,49.526c-3.017,0-5.471,2.454-5.471,5.471c0,3.017,2.454,5.471,5.471,5.471c3.017,0,5.471-2.454,5.471-5.471
				C55.471,51.98,53.017,49.526,50,49.526z"/>
		</g>
		<g>
			<path d="M50.221,49.202c-0.829,0-1.5-0.671-1.5-1.5v-13c0-0.829,0.671-1.5,1.5-1.5c0.829,0,1.5,0.671,1.5,1.5v13
				C51.721,48.531,51.049,49.202,50.221,49.202z"/>
		</g>
		<g>
			<path d="M50.221,87.202c-0.4,0-0.78-0.16-1.06-0.44c-0.28-0.28-0.44-0.671-0.44-1.06c0-0.4,0.16-0.78,0.44-1.06
				c0.56-0.56,1.56-0.56,2.12,0c0.28,0.28,0.44,0.67,0.44,1.06c0,0.39-0.16,0.78-0.44,1.06C51,87.042,50.621,87.202,50.221,87.202z"
				/>
		</g>
		<g>
			<path d="M82.221,56.202c-0.39,0-0.78-0.16-1.06-0.44c-0.28-0.28-0.44-0.66-0.44-1.06c0-0.39,0.16-0.78,0.44-1.06
				c0.56-0.56,1.56-0.56,2.12,0c0.28,0.28,0.44,0.67,0.44,1.06c0,0.39-0.16,0.78-0.44,1.06C83,56.042,82.621,56.202,82.221,56.202z"
				/>
		</g>
		<g>
			<path d="M17.221,56.202c-0.39,0-0.78-0.16-1.06-0.44c-0.28-0.28-0.44-0.66-0.44-1.06c0-0.39,0.16-0.78,0.44-1.06
				c0.56-0.56,1.56-0.56,2.12,0c0.28,0.28,0.44,0.67,0.44,1.06c0,0.4-0.16,0.78-0.44,1.06C18,56.042,17.61,56.202,17.221,56.202z"/>
		</g>
		<g>
			<path d="M50.221,23.202c-0.39,0-0.78-0.16-1.06-0.44c-0.28-0.28-0.44-0.671-0.44-1.06c0-0.4,0.16-0.78,0.44-1.06
				c0.56-0.56,1.56-0.56,2.12,0c0.28,0.28,0.44,0.67,0.44,1.06c0,0.39-0.16,0.78-0.44,1.06C51,23.042,50.621,23.202,50.221,23.202z"
				/>
		</g>
		<g>
			<path d="M27.451,78.182c-0.4,0-0.79-0.16-1.06-0.44c-0.28-0.28-0.44-0.67-0.44-1.06c0-0.39,0.16-0.78,0.44-1.06
				c0.55-0.56,1.56-0.56,2.12,0c0.28,0.28,0.44,0.67,0.44,1.06c0,0.39-0.16,0.78-0.44,1.06C28.23,78.022,27.84,78.182,27.451,78.182
				z"/>
		</g>
		<g>
			<path d="M71.991,78.892c-0.39,0-0.78-0.16-1.06-0.44c-0.28-0.28-0.44-0.67-0.44-1.06c0-0.4,0.16-0.78,0.44-1.06
				c0.57-0.56,1.57-0.56,2.12,0c0.28,0.28,0.44,0.67,0.44,1.06c0,0.39-0.16,0.78-0.44,1.06
				C72.781,78.732,72.391,78.892,71.991,78.892z"/>
		</g>
		<g>
			<path d="M26.031,32.932c-0.39,0-0.78-0.16-1.06-0.44c-0.28-0.28-0.44-0.67-0.44-1.06c0-0.4,0.16-0.79,0.44-1.06
				c0.56-0.56,1.57-0.56,2.12,0c0.28,0.27,0.441,0.66,0.441,1.06c0,0.39-0.16,0.78-0.441,1.06
				C26.81,32.772,26.431,32.932,26.031,32.932z"/>
		</g>
		<g>
			<path d="M72.701,32.932c-0.39,0-0.78-0.16-1.06-0.44c-0.28-0.28-0.44-0.67-0.44-1.06c0-0.4,0.16-0.78,0.44-1.06
				c0.56-0.56,1.56-0.56,2.12-0.01c0.28,0.29,0.44,0.67,0.44,1.07c0,0.39-0.16,0.78-0.44,1.06
				C73.48,32.772,73.101,32.932,72.701,32.932z"/>
		</g>
	</g>
</g>
<script  type="text/javascript">
    <![CDATA[
         var c=window.location.search.split('color=')[1]; c=parseInt(c,16); if(!isNaN(c)){c=c.toString(16);var p=document.getElementsByTagName('path');for(var i=0,l=p.length;i<l;i++){var s=p[i].style;s.fill='#'+c;} var p2=document.getElementsByTagName('polygon');for(var i=0,l=p2.length;i<l;i++){var s=p2[i].style;s.fill='#'+c;} var p3=document.getElementsByTagName('circle');for(var i=0,l=p3.length;i<l;i++){var s=p3[i].style;s.fill='#'+c;} }
        ]]>
</script>
</svg>
