<svg version="1.1" id="Vrstva_1" xmlns="http://www.w3.org/2000/svg" xmlns:xlink="http://www.w3.org/1999/xlink" x="0px" y="0px"
	 viewBox="-1.000 -1.000 79.000 82.600" enable-background="new 0 0 77 80.6" xml:space="preserve">
<g>
	<path d="M13.5,53C6.1,53,0,46.9,0,39.5S6.1,26,13.5,26C20.9,26,27,32.1,27,39.5S20.9,53,13.5,53z M13.5,29C7.7,29,3,33.7,3,39.5
		S7.7,50,13.5,50C19.3,50,24,45.3,24,39.5S19.3,29,13.5,29z"/>
	<path d="M63.5,27C56.1,27,50,20.9,50,13.5S56.1,0,63.5,0C70.9,0,77,6.1,77,13.5S70.9,27,63.5,27z M63.5,3C57.7,3,53,7.7,53,13.5
		S57.7,24,63.5,24C69.3,24,74,19.3,74,13.5S69.3,3,63.5,3z"/>
	<path d="M25.6,33.6c-0.6,0-1.1-0.3-1.3-0.8c-0.4-0.7-0.1-1.6,0.7-2l25.3-12.3c0.7-0.4,1.6-0.1,2,0.7c0.4,0.7,0.1,1.6-0.7,2
		L26.3,33.4C26.1,33.5,25.9,33.6,25.6,33.6z"/>
	<path d="M63.5,80.6c-7.4,0-13.5-6.1-13.5-13.5c0-7.4,6.1-13.5,13.5-13.5c7.4,0,13.5,6.1,13.5,13.5C77,74.5,70.9,80.6,63.5,80.6z
		 M63.5,56.6c-5.8,0-10.5,4.7-10.5,10.5s4.7,10.5,10.5,10.5c5.8,0,10.5-4.7,10.5-10.5S69.3,56.6,63.5,56.6z"/>
	<path d="M50.9,62.3c-0.2,0-0.5-0.1-0.7-0.2L24,48.8c-0.7-0.4-1-1.3-0.7-2c0.4-0.7,1.3-1,2-0.7l26.3,13.3c0.7,0.4,1,1.3,0.7,2
		C52,62,51.5,62.3,50.9,62.3z"/>
</g>
<script type="text/javascript">
<![CDATA[ var c=window.location.search.split('color=')[1]; c=parseInt(c,16); if(!isNaN(c)){c=c.toString(16);var p=document.getElementsByTagName('path');for(var i=0,l=p.length;i<l;i++){p[i].style.fill='#'+c;}} ]]> 
</script>
</svg>
